<svg width="1763" height="2551" viewBox="0 0 1763 2551" fill="none" xmlns="http://www.w3.org/2000/svg">
<path d="M750.162 1473.86V735.618L605.69 880.114V1169.11L293.105 856.47L563.662 585.867V394.081L117.112 840.706L750.162 1473.86Z" fill="url(#paint0_linear_30_433)"/>
<path d="M1020.72 407.217L1171.44 286.646L1020.72 134.251V407.217Z" fill="url(#paint1_linear_30_433)"/>
<path d="M886.754 0L983.944 95.5485V446.625L792.19 638.411V76.189L886.754 0Z" fill="#FF5A3D"/>
<path d="M595.183 231.194L752.789 105.088V680.447L595.183 838.079V231.194Z" fill="url(#paint2_linear_30_433)"/>
<path d="M789.563 701.464L983.944 507.051V1505.39L881.5 1607.85L789.563 1515.9V701.464Z" fill="url(#paint3_linear_30_433)"/>
<path d="M1018.09 480.779L1159.94 338.91V1171.73L1483.03 848.588L1217.73 583.24V420.353L1645.89 848.588L1018.09 1476.49V480.779Z" fill="url(#paint4_linear_30_433)"/>
<path d="M263.055 2162.79H124.938L102.797 2228.16H8.43463L142.334 1858.09H246.713L380.613 2228.16H285.196L263.055 2162.79ZM239.86 2093.2L193.996 1957.72L148.66 2093.2H239.86ZM432.435 2042.59C432.435 2006.04 440.343 1973.54 456.158 1945.07C471.973 1916.25 493.938 1893.93 522.053 1878.12C550.52 1861.95 582.677 1853.87 618.524 1853.87C662.455 1853.87 700.059 1865.47 731.337 1888.66C762.616 1911.86 783.527 1943.49 794.07 1983.55H694.963C687.583 1968.09 677.039 1956.32 663.333 1948.23C649.978 1940.15 634.691 1936.11 617.47 1936.11C589.706 1936.11 567.214 1945.77 549.993 1965.1C532.772 1984.43 524.162 2010.26 524.162 2042.59C524.162 2074.93 532.772 2100.76 549.993 2120.09C567.214 2139.42 589.706 2149.08 617.47 2149.08C634.691 2149.08 649.978 2145.04 663.333 2136.96C677.039 2128.87 687.583 2117.1 694.963 2101.64H794.07C783.527 2141.7 762.616 2173.33 731.337 2196.53C700.059 2219.37 662.455 2230.79 618.524 2230.79C582.677 2230.79 550.52 2222.89 522.053 2207.07C493.938 2190.9 471.973 2168.59 456.158 2140.12C440.343 2111.65 432.435 2079.14 432.435 2042.59ZM1141.85 1858.09V1930.31H1043.8V2228.16H953.652V1930.31H855.6V1858.09H1141.85ZM1303.59 1858.09V2228.16H1213.45V1858.09H1303.59ZM1742.68 1858.09L1611.42 2228.16H1498.6L1367.34 1858.09H1463.28L1555.01 2137.48L1647.26 1858.09H1742.68Z" fill="#FF5A3D"/>
<path d="M33.0532 2399.77V2510.16H10.9123V2399.77H33.0532ZM421.993 2399.77V2510.16H399.852V2438.36L370.278 2510.16H353.514L323.782 2438.36V2510.16H301.641V2399.77H326.787L361.896 2481.85L397.005 2399.77H421.993ZM741.836 2511.26C731.504 2511.26 722.015 2508.84 713.369 2503.99C704.724 2499.14 697.871 2492.44 692.81 2483.9C687.749 2475.26 685.219 2465.51 685.219 2454.65C685.219 2443.89 687.749 2434.25 692.81 2425.71C697.871 2417.06 704.724 2410.31 713.369 2405.46C722.015 2400.61 731.504 2398.19 741.836 2398.19C752.274 2398.19 761.763 2400.61 770.303 2405.46C778.949 2410.31 785.749 2417.06 790.704 2425.71C795.765 2434.25 798.295 2443.89 798.295 2454.65C798.295 2465.51 795.765 2475.26 790.704 2483.9C785.749 2492.44 778.949 2499.14 770.303 2503.99C761.658 2508.84 752.169 2511.26 741.836 2511.26ZM741.836 2491.5C748.478 2491.5 754.33 2490.02 759.391 2487.07C764.452 2484.01 768.405 2479.69 771.252 2474.1C774.099 2468.51 775.522 2462.03 775.522 2454.65C775.522 2447.27 774.099 2440.83 771.252 2435.35C768.405 2429.76 764.452 2425.49 759.391 2422.54C754.33 2419.59 748.478 2418.11 741.836 2418.11C735.194 2418.11 729.29 2419.59 724.123 2422.54C719.063 2425.49 715.109 2429.76 712.262 2435.35C709.416 2440.83 707.992 2447.27 707.992 2454.65C707.992 2462.03 709.416 2468.51 712.262 2474.1C715.109 2479.69 719.063 2484.01 724.123 2487.07C729.29 2490.02 735.194 2491.5 741.836 2491.5ZM1124.11 2453.54C1130.33 2454.7 1135.44 2457.81 1139.45 2462.87C1143.45 2467.93 1145.46 2473.73 1145.46 2480.27C1145.46 2486.17 1143.98 2491.39 1141.03 2495.92C1138.18 2500.35 1134.02 2503.83 1128.54 2506.36C1123.05 2508.89 1116.57 2510.16 1109.08 2510.16H1061.48V2399.77H1107.03C1114.51 2399.77 1120.94 2400.98 1126.32 2403.41C1131.8 2405.83 1135.92 2409.2 1138.66 2413.53C1141.5 2417.85 1142.93 2422.75 1142.93 2428.24C1142.93 2434.67 1141.19 2440.04 1137.71 2444.37C1134.33 2448.69 1129.8 2451.75 1124.11 2453.54ZM1083.62 2445.32H1103.86C1109.14 2445.32 1113.2 2444.16 1116.04 2441.84C1118.89 2439.41 1120.31 2435.98 1120.31 2431.56C1120.31 2427.13 1118.89 2423.7 1116.04 2421.28C1113.2 2418.85 1109.14 2417.64 1103.86 2417.64H1083.62V2445.32ZM1105.92 2492.13C1111.3 2492.13 1115.46 2490.86 1118.41 2488.33C1121.47 2485.8 1123 2482.22 1123 2477.58C1123 2472.83 1121.42 2469.14 1118.26 2466.51C1115.09 2463.77 1110.82 2462.4 1105.45 2462.4H1083.62V2492.13H1105.92ZM1431.96 2399.77V2510.16H1409.82V2399.77H1431.96ZM1722.69 2492.6H1759.06V2510.16H1700.55V2399.77H1722.69V2492.6Z" fill="white"/>
<defs>
<linearGradient id="paint0_linear_30_433" x1="881.5" y1="0" x2="881.5" y2="1607.85" gradientUnits="userSpaceOnUse">
<stop offset="0.322917" stop-color="#FF5A3D"/>
<stop offset="1" stop-color="#FF5A3D" stop-opacity="0"/>
</linearGradient>
<linearGradient id="paint1_linear_30_433" x1="881.5" y1="0" x2="881.5" y2="1607.85" gradientUnits="userSpaceOnUse">
<stop offset="0.322917" stop-color="white"/>
<stop offset="1" stop-color="white" stop-opacity="0"/>
</linearGradient>
<linearGradient id="paint2_linear_30_433" x1="881.5" y1="0" x2="881.5" y2="1607.85" gradientUnits="userSpaceOnUse">
<stop offset="0.322917" stop-color="white"/>
<stop offset="1" stop-color="white" stop-opacity="0"/>
</linearGradient>
<linearGradient id="paint3_linear_30_433" x1="881.5" y1="0" x2="881.5" y2="1607.85" gradientUnits="userSpaceOnUse">
<stop offset="0.322917" stop-color="white"/>
<stop offset="1" stop-color="white" stop-opacity="0"/>
</linearGradient>
<linearGradient id="paint4_linear_30_433" x1="881.5" y1="0" x2="881.5" y2="1607.85" gradientUnits="userSpaceOnUse">
<stop offset="0.322917" stop-color="#FF5A3D"/>
<stop offset="1" stop-color="#FF5A3D" stop-opacity="0"/>
</linearGradient>
</defs>
</svg>
