<svg width="1207" height="393" viewBox="0 0 1207 393" fill="none" xmlns="http://www.w3.org/2000/svg">
<path d="M551.701 195.886H491.191L481.492 224.53H440.151L498.813 62.3536H544.541L603.203 224.53H561.4L551.701 195.886ZM541.539 165.388L521.446 106.017L501.584 165.388H541.539ZM625.906 143.212C625.906 127.194 629.371 112.95 636.299 100.473C643.228 87.8427 652.85 78.0651 665.168 71.1319C677.639 64.0497 691.727 60.5086 707.432 60.5086C726.678 60.5086 743.153 65.588 756.855 75.7556C770.559 85.9187 779.72 99.7808 784.339 117.337H740.92C737.686 110.562 733.068 105.404 727.063 101.858C721.212 98.317 714.515 96.5464 706.97 96.5464C694.807 96.5464 684.953 100.78 677.408 109.251C669.864 117.723 666.092 129.043 666.092 143.212C666.092 157.381 669.864 168.701 677.408 177.172C684.953 185.644 694.807 189.877 706.97 189.877C714.515 189.877 721.212 188.107 727.063 184.566C733.068 181.02 737.686 175.862 740.92 169.087H784.339C779.72 186.643 770.559 200.505 756.855 210.668C743.153 220.678 726.678 225.687 707.432 225.687C691.727 225.687 677.639 222.221 665.168 215.287C652.85 208.205 643.228 198.423 636.299 185.951C629.371 173.474 625.906 159.23 625.906 143.212ZM936.702 62.3536V94.0045H893.743V224.53H854.252V94.0045H811.295V62.3536H936.702ZM1007.56 62.3536V224.53H968.072V62.3536H1007.56ZM1199.92 62.3536L1142.42 224.53H1092.99L1035.49 62.3536H1077.52L1117.71 184.794L1158.12 62.3536H1199.92Z" fill="#FF5A3D"/>
<path d="M451.068 299.575V347.926H441.371V299.575H451.068ZM621.411 299.575V347.926H611.713V316.475L598.761 347.926H591.419L578.397 316.475V347.926H568.701V299.575H579.714L595.09 335.525L610.467 299.575H621.411ZM761.491 348.412C756.966 348.412 752.81 347.348 749.023 345.223C745.237 343.099 742.236 340.168 740.019 336.428C737.803 332.639 736.695 328.368 736.695 323.611C736.695 318.902 737.803 314.675 740.019 310.934C742.236 307.149 745.237 304.192 749.023 302.068C752.81 299.943 756.966 298.883 761.491 298.883C766.063 298.883 770.218 299.943 773.959 302.068C777.745 304.192 780.724 307.149 782.894 310.934C785.11 314.675 786.218 318.902 786.218 323.611C786.218 328.368 785.11 332.639 782.894 336.428C780.724 340.168 777.745 343.099 773.959 345.223C770.172 347.348 766.016 348.412 761.491 348.412ZM761.491 339.752C764.4 339.752 766.963 339.104 769.179 337.812C771.396 336.471 773.127 334.579 774.374 332.13C775.621 329.686 776.244 326.843 776.244 323.611C776.244 320.378 775.621 317.561 774.374 315.161C773.127 312.712 771.396 310.842 769.179 309.549C766.963 308.257 764.4 307.609 761.491 307.609C758.582 307.609 755.996 308.257 753.734 309.549C751.517 310.842 749.786 312.712 748.539 315.161C747.292 317.561 746.669 320.378 746.669 323.611C746.669 326.843 747.292 329.686 748.539 332.13C749.786 334.579 751.517 336.471 753.734 337.812C755.996 339.104 758.582 339.752 761.491 339.752ZM928.914 323.129C931.638 323.637 933.876 324.999 935.633 327.216C937.385 329.432 938.265 331.973 938.265 334.833C938.265 337.422 937.617 339.704 936.325 341.693C935.076 343.633 933.254 345.153 930.854 346.262C928.449 347.37 925.611 347.926 922.335 347.926H901.487V299.575H921.433C924.709 299.575 927.53 300.105 929.882 301.17C932.282 302.23 934.086 303.706 935.287 305.603C936.53 307.495 937.157 309.641 937.157 312.042C937.157 314.859 936.395 317.215 934.87 319.107C933.39 321.004 931.406 322.34 928.914 323.129ZM911.179 319.524H920.049C922.357 319.524 924.135 319.015 925.379 317.999C926.627 316.939 927.249 315.437 927.249 313.496C927.249 311.56 926.627 310.058 925.379 308.997C924.135 307.933 922.357 307.403 920.049 307.403H911.179V319.524ZM920.947 340.028C923.303 340.028 925.125 339.476 926.422 338.368C927.757 337.26 928.428 335.687 928.428 333.655C928.428 331.578 927.736 329.962 926.351 328.806C924.963 327.605 923.093 327.005 920.741 327.005H911.179V340.028H920.947ZM1063.74 299.575V347.926H1054.04V299.575H1063.74ZM1191.07 340.238H1207V347.926H1181.37V299.575H1191.07V340.238Z" fill="white"/>
<path d="M154.446 359.58V179.47L119.199 214.723V285.23L42.9372 208.954L108.945 142.935V96.1445L0 205.108L154.446 359.58Z" fill="url(#paint0_linear_50_11)"/>
<path d="M220.454 99.3493L257.225 69.9333L220.454 32.7535V99.3493Z" fill="url(#paint1_linear_50_11)"/>
<path d="M187.77 0L211.482 23.3111V108.964L164.7 155.754V18.5879L187.77 0Z" fill="#FF5A3D"/>
<path d="M116.635 56.4048L155.087 25.6386V166.009L116.635 204.467V56.4048Z" fill="url(#paint2_linear_50_11)"/>
<path d="M164.059 171.137L211.482 123.706V367.273L186.489 392.269L164.059 369.837V171.137Z" fill="url(#paint3_linear_50_11)"/>
<path d="M219.812 117.296L254.419 82.6842V285.869L333.244 207.031L268.517 142.294V102.554L372.977 207.031L219.812 360.221V117.296Z" fill="url(#paint4_linear_50_11)"/>
<defs>
<linearGradient id="paint0_linear_50_11" x1="186.489" y1="4.75853e-05" x2="186.489" y2="392.269" gradientUnits="userSpaceOnUse">
<stop offset="0.322917" stop-color="white"/>
<stop offset="1" stop-color="white" stop-opacity="0"/>
</linearGradient>
<linearGradient id="paint1_linear_50_11" x1="186.489" y1="3.56228e-05" x2="186.489" y2="392.269" gradientUnits="userSpaceOnUse">
<stop offset="0.322917" stop-color="white"/>
<stop offset="1" stop-color="white" stop-opacity="0"/>
</linearGradient>
<linearGradient id="paint2_linear_50_11" x1="186.489" y1="1.26562e-05" x2="186.489" y2="392.269" gradientUnits="userSpaceOnUse">
<stop offset="0.322917" stop-color="white"/>
<stop offset="1" stop-color="white" stop-opacity="0"/>
</linearGradient>
<linearGradient id="paint3_linear_50_11" x1="186.489" y1="2.52783e-05" x2="186.489" y2="392.269" gradientUnits="userSpaceOnUse">
<stop offset="0.322917" stop-color="white"/>
<stop offset="1" stop-color="white" stop-opacity="0"/>
</linearGradient>
<linearGradient id="paint4_linear_50_11" x1="186.489" y1="-8.83563e-05" x2="186.489" y2="392.269" gradientUnits="userSpaceOnUse">
<stop offset="0.322917" stop-color="white"/>
<stop offset="1" stop-color="white" stop-opacity="0"/>
</linearGradient>
</defs>
</svg>
